<svg width="640" height="549" viewBox="0 0 640 549" fill="none" xmlns="http://www.w3.org/2000/svg">
<g clip-path="url(#clip0_9_50)">
<path d="M126.058 549H149.589C175.36 549 189.927 536.493 189.927 513.532C189.927 497.106 177.415 483.104 153.697 478.811V422.437C153.697 397.983 159.113 383.796 173.493 361.022C212.524 376.142 242.217 381.37 276.02 381.37C313.93 381.37 355.017 375.582 379.667 368.675C385.083 389.024 390.873 411.797 390.873 432.518C390.873 462.011 387.511 487.958 387.511 511.666C387.511 536.493 401.145 549 426.542 549H452.688C477.713 549 493.025 535.56 493.025 513.532C493.025 495.239 482.754 482.732 462.026 479.559V455.105C462.026 325.741 556.522 361.769 558.389 198.432C602.275 195.817 633.091 167.631 633.091 146.724C633.091 116.856 601.715 86.0554 565.486 60.2948C558.203 33.7875 544.01 12.3203 532.431 12.3203C521.599 12.3203 505.165 30.8008 495.266 60.1081C476.217 78.5886 459.597 102.483 447.085 124.51L435.88 143.177C428.036 157.551 421.312 166.137 411.789 166.137C319.346 166.137 282.556 152.884 195.342 152.884C152.577 152.884 126.244 168.191 110.184 188.538C101.967 198.432 96.1775 200.671 82.5446 195.445C51.5436 184.805 30.0672 155.497 30.0672 118.35C30.0672 68.1349 70.0321 33.2274 126.618 33.2274C147.908 33.2274 169.571 37.7076 194.782 47.7878C216.259 56.3747 226.343 27.814 206.734 19.7872C178.162 8.21353 151.083 3.1734 126.618 3.1734C51.5436 3.1734 0 50.0279 0 118.35C0 168.377 27.2658 207.392 69.4718 222.512C81.6108 227.18 85.9061 235.393 85.3458 248.273C84.0385 266.379 84.0385 277.02 84.0385 284.299C84.0385 361.022 50.0496 374.462 59.3872 408.997L88.7073 516.892C94.4967 538.733 107.382 549 126.058 549ZM559.697 130.67C552.04 130.67 545.876 124.883 545.876 117.043C545.876 109.576 552.04 103.229 559.697 103.229C567.354 103.229 573.33 109.576 573.33 117.043C573.33 124.883 567.354 130.67 559.697 130.67Z" fill="white"/>
</g>
<defs>
<clipPath id="clip0_9_50">
<rect width="640" height="549" fill="white"/>
</clipPath>
</defs>
</svg>
