<svg width="640" height="640" viewBox="0 0 640 640" fill="none" xmlns="http://www.w3.org/2000/svg">
<circle cx="320" cy="320" r="320" fill="#181818"/>
<path d="M175.575 527H193.416C212.956 527 224 517.514 224 500.098C224 487.639 214.513 477.019 196.531 473.763V431.004C196.531 412.456 200.637 401.695 211.54 384.422C241.133 395.89 263.646 399.855 289.274 399.855C318.017 399.855 349.169 395.465 367.858 390.227C371.964 405.661 376.354 422.934 376.354 438.651C376.354 461.02 373.805 480.7 373.805 498.683C373.805 517.514 384.142 527 403.398 527H423.221C442.195 527 453.804 516.806 453.804 500.098C453.804 486.223 446.017 476.737 430.301 474.33V455.782C430.301 357.662 501.947 384.989 503.362 261.1C536.636 259.117 560 237.738 560 221.88C560 199.226 536.211 175.865 508.743 156.326C503.222 136.22 492.46 119.938 483.681 119.938C475.469 119.938 463.008 133.955 455.504 156.184C441.061 170.201 428.46 188.324 418.973 205.031L410.478 219.19C404.53 230.092 399.433 236.605 392.212 236.605C322.123 236.605 294.23 226.553 228.105 226.553C195.681 226.553 175.717 238.163 163.54 253.596C157.31 261.1 152.92 262.798 142.584 258.834C119.08 250.764 102.797 228.535 102.797 200.359C102.797 162.272 133.097 135.795 176 135.795C192.142 135.795 208.566 139.194 227.681 146.839C243.965 153.352 251.61 131.689 236.743 125.601C215.08 116.823 194.549 113 176 113C119.08 113 80 148.538 80 200.359C80 238.304 100.673 267.896 132.672 279.364C141.876 282.905 145.133 289.135 144.708 298.904C143.717 312.637 143.717 320.708 143.717 326.229C143.717 384.422 117.947 394.616 125.027 420.81L147.257 502.647C151.646 519.213 161.416 527 175.575 527ZM504.354 209.704C498.548 209.704 493.875 205.315 493.875 199.368C493.875 193.704 498.548 188.891 504.354 188.891C510.159 188.891 514.69 193.704 514.69 199.368C514.69 205.315 510.159 209.704 504.354 209.704Z" fill="#DEDEDE"/>
</svg>
